<svg width="10" height="16" viewBox="0 0 10 16" fill="none" xmlns="http://www.w3.org/2000/svg">
<path d="M4.08317 13.5C4.08317 14.5083 3.25817 15.3333 2.24984 15.3333C1.2415 15.3333 0.416504 14.5083 0.416504 13.5C0.416504 12.4916 1.2415 11.6666 2.24984 11.6666C3.25817 11.6666 4.08317 12.4916 4.08317 13.5ZM2.24984 6.16663C1.2415 6.16663 0.416504 6.99163 0.416504 7.99996C0.416504 9.00829 1.2415 9.83329 2.24984 9.83329C3.25817 9.83329 4.08317 9.00829 4.08317 7.99996C4.08317 6.99163 3.25817 6.16663 2.24984 6.16663ZM2.24984 0.666626C1.2415 0.666626 0.416504 1.49163 0.416504 2.49996C0.416504 3.50829 1.2415 4.33329 2.24984 4.33329C3.25817 4.33329 4.08317 3.50829 4.08317 2.49996C4.08317 1.49163 3.25817 0.666626 2.24984 0.666626ZM7.74984 4.33329C8.75817 4.33329 9.58317 3.50829 9.58317 2.49996C9.58317 1.49163 8.75817 0.666626 7.74984 0.666626C6.7415 0.666626 5.9165 1.49163 5.9165 2.49996C5.9165 3.50829 6.7415 4.33329 7.74984 4.33329ZM7.74984 6.16663C6.7415 6.16663 5.9165 6.99163 5.9165 7.99996C5.9165 9.00829 6.7415 9.83329 7.74984 9.83329C8.75817 9.83329 9.58317 9.00829 9.58317 7.99996C9.58317 6.99163 8.75817 6.16663 7.74984 6.16663ZM7.74984 11.6666C6.7415 11.6666 5.9165 12.4916 5.9165 13.5C5.9165 14.5083 6.7415 15.3333 7.74984 15.3333C8.75817 15.3333 9.58317 14.5083 9.58317 13.5C9.58317 12.4916 8.75817 11.6666 7.74984 11.6666Z" fill="black"/>
</svg>
