<svg width="965" height="45" viewBox="0 0 965 45" fill="none" xmlns="http://www.w3.org/2000/svg">
<path d="M2.38419e-05 15.8621C2.38419e-05 7.10169 8.30859 0 18.5577 0H946.442C956.692 0 965 7.10169 965 15.8621V23.2644C965 32.0247 956.692 39.1264 946.442 39.1264H18.5577C8.3086 39.1264 2.38419e-05 32.0247 2.38419e-05 23.2644V15.8621Z" fill="#E8E8E8"/>
<path d="M2.38419e-05 15.8621H965V44.4138H2.38419e-05V15.8621Z" fill="#E8E8E8"/>
<path d="M965 28.5518C965 37.3121 956.691 44.4138 946.442 44.4138H18.5577C8.30856 44.4138 0 37.3121 0 28.5517V21.1495C0 12.3891 8.30856 5.28738 18.5577 5.28738H946.442C956.691 5.28738 965 12.3891 965 21.1495V28.5518Z" fill="#E8E8E8"/>
<path d="M965 28.5518L0 28.5517V2.47955e-05H965V28.5518Z" fill="#E8E8E8"/>
</svg>
