<svg width="290" height="175" viewBox="0 0 290 175" fill="none" xmlns="http://www.w3.org/2000/svg">
<path d="M252.724 4.85104e-09H3.57904C2.63006 0.000858137 1.72021 0.376112 1.04919 1.04339C0.378172 1.71067 0.000832495 2.61544 0 3.5591V171.441C0.000832495 172.385 0.378172 173.289 1.04919 173.957C1.72021 174.624 2.63006 174.999 3.57904 175H252.724C253.242 175 253.753 174.888 254.223 174.673C254.693 174.457 255.11 174.143 255.446 173.751C255.474 173.72 255.5 173.688 255.524 173.653C255.737 173.393 255.91 173.103 256.037 172.792C256.217 172.364 256.309 171.905 256.308 171.441V3.5591C256.307 2.61478 255.929 1.70949 255.257 1.04214C254.585 0.374784 253.674 -4.92369e-05 252.724 4.85104e-09ZM255.286 171.441C255.286 171.937 255.139 172.423 254.863 172.837C254.618 173.201 254.285 173.498 253.894 173.702C253.533 173.888 253.131 173.984 252.724 173.984H3.57904C2.9011 173.983 2.25116 173.715 1.77178 173.238C1.29241 172.761 1.02274 172.115 1.02191 171.441V3.5591C1.02274 2.88496 1.29241 2.23867 1.77178 1.76198C2.25116 1.28529 2.9011 1.01712 3.57904 1.01631H252.724C253.403 1.01622 254.054 1.28396 254.534 1.76072C255.014 2.23749 255.285 2.8843 255.286 3.5591V171.441Z" fill="#3F3D56"/>
<path d="M255.794 14.2646H0.51001V15.2821H255.794V14.2646Z" fill="#3F3D56"/>
<path d="M9.20712 10.6832C10.9024 10.6832 12.2767 9.31664 12.2767 7.63087C12.2767 5.94511 10.9024 4.57852 9.20712 4.57852C7.51186 4.57852 6.13757 5.94511 6.13757 7.63087C6.13757 9.31664 7.51186 10.6832 9.20712 10.6832Z" fill="#3F3D56"/>
<path d="M18.0321 10.6832C19.7273 10.6832 21.1016 9.31664 21.1016 7.63087C21.1016 5.94511 19.7273 4.57852 18.0321 4.57852C16.3368 4.57852 14.9625 5.94511 14.9625 7.63087C14.9625 9.31664 16.3368 10.6832 18.0321 10.6832Z" fill="#3F3D56"/>
<path d="M26.857 10.6832C28.5523 10.6832 29.9266 9.31664 29.9266 7.63087C29.9266 5.94511 28.5523 4.57852 26.857 4.57852C25.1618 4.57852 23.7875 5.94511 23.7875 7.63087C23.7875 9.31664 25.1618 10.6832 26.857 10.6832Z" fill="#3F3D56"/>
<path d="M30.8052 78.2619H21.7753C21.2856 78.2614 20.8161 78.0677 20.4698 77.7233C20.1235 77.379 19.9288 76.9122 19.9282 76.4252V67.4458C19.9288 66.9589 20.1235 66.492 20.4698 66.1477C20.8161 65.8033 21.2856 65.6097 21.7753 65.6091H30.8052C31.2949 65.6097 31.7644 65.8033 32.1107 66.1477C32.457 66.492 32.6517 66.9589 32.6523 67.4458V76.4252C32.6517 76.9122 32.457 77.379 32.1107 77.7233C31.7644 78.0677 31.2949 78.2614 30.8052 78.2619Z" fill="#6C63FF"/>
<path d="M30.8052 101.527H21.7753C21.2856 101.526 20.8161 101.332 20.4698 100.988C20.1235 100.644 19.9288 100.177 19.9282 99.69V90.7106C19.9288 90.2236 20.1235 89.7568 20.4698 89.4124C20.8161 89.0681 21.2856 88.8744 21.7753 88.8739H30.8052C31.2949 88.8744 31.7644 89.0681 32.1107 89.4124C32.457 89.7568 32.6517 90.2236 32.6523 90.7106V99.69C32.6517 100.177 32.457 100.644 32.1107 100.988C31.7644 101.332 31.2949 101.526 30.8052 101.527Z" fill="#3F3D56"/>
<path d="M30.8052 124.791H21.7753C21.2856 124.791 20.8161 124.597 20.4698 124.253C20.1235 123.909 19.9288 123.442 19.9282 122.955V113.975C19.9288 113.488 20.1235 113.022 20.4698 112.677C20.8161 112.333 21.2856 112.139 21.7753 112.139H30.8052C31.2949 112.139 31.7644 112.333 32.1107 112.677C32.457 113.022 32.6517 113.488 32.6523 113.975V122.955C32.6517 123.442 32.457 123.909 32.1107 124.253C31.7644 124.597 31.2949 124.791 30.8052 124.791Z" fill="#CCCCCC"/>
<path d="M89.9106 73.7722H46.4025C45.9126 73.7722 45.4428 73.5787 45.0964 73.2343C44.75 72.8898 44.5554 72.4227 44.5554 71.9355C44.5554 71.4484 44.75 70.9812 45.0964 70.6368C45.4428 70.2924 45.9126 70.0988 46.4025 70.0988H89.9106C90.4004 70.0988 90.8702 70.2924 91.2166 70.6368C91.563 70.9812 91.7576 71.4484 91.7576 71.9355C91.7576 72.4227 91.563 72.8898 91.2166 73.2343C90.8702 73.5787 90.4004 73.7722 89.9106 73.7722Z" fill="#CCCCCC"/>
<path d="M89.9106 97.037H46.4025C45.9126 97.037 45.4428 96.8435 45.0964 96.499C44.75 96.1546 44.5554 95.6874 44.5554 95.2003C44.5554 94.7132 44.75 94.246 45.0964 93.9015C45.4428 93.5571 45.9126 93.3636 46.4025 93.3636H89.9106C90.4004 93.3636 90.8702 93.5571 91.2166 93.9015C91.563 94.246 91.7576 94.7132 91.7576 95.2003C91.7576 95.6874 91.563 96.1546 91.2166 96.499C90.8702 96.8435 90.4004 97.037 89.9106 97.037Z" fill="#CCCCCC"/>
<path d="M89.9106 120.302H46.4025C45.9126 120.302 45.4428 120.108 45.0964 119.764C44.75 119.419 44.5554 118.952 44.5554 118.465C44.5554 117.978 44.75 117.511 45.0964 117.166C45.4428 116.822 45.9126 116.628 46.4025 116.628H89.9106C90.4004 116.628 90.8702 116.822 91.2166 117.166C91.563 117.511 91.7576 117.978 91.7576 118.465C91.7576 118.952 91.563 119.419 91.2166 119.764C90.8702 120.108 90.4004 120.302 89.9106 120.302Z" fill="#CCCCCC"/>
<path d="M239.221 70.1273C239.423 70.2189 239.616 70.3263 239.8 70.4487L258.21 62.6353L258.867 57.8128L266.223 57.7681L265.789 68.8284L241.49 75.2184C241.439 75.3863 241.377 75.551 241.306 75.7115C240.955 76.457 240.39 77.0826 239.682 77.5097C238.974 77.9369 238.156 78.1467 237.328 78.1126C236.501 78.0785 235.703 77.8022 235.033 77.3183C234.363 76.8344 233.852 76.1645 233.564 75.3928C233.276 74.621 233.224 73.7818 233.413 72.9805C233.603 72.1793 234.027 71.4517 234.632 70.8891C235.236 70.3266 235.994 69.9541 236.811 69.8186C237.627 69.6831 238.466 69.7905 239.221 70.1273Z" fill="#FFB8B8"/>
<path d="M268.898 170.354L263.866 170.353L261.473 151.052L268.899 151.053L268.898 170.354Z" fill="#FFB8B8"/>
<path d="M260.272 168.924H269.976V175H254.161C254.161 174.202 254.319 173.412 254.626 172.674C254.934 171.937 255.384 171.267 255.951 170.703C256.518 170.139 257.192 169.691 257.933 169.386C258.675 169.081 259.469 168.924 260.272 168.924Z" fill="#2F2E41"/>
<path d="M288.469 168.939L283.461 169.43L279.175 150.456L286.566 149.732L288.469 168.939Z" fill="#FFB8B8"/>
<path d="M279.743 168.357L289.401 167.412L290 173.458L274.261 175C274.182 174.206 274.262 173.404 274.495 172.641C274.728 171.877 275.11 171.167 275.619 170.55C276.128 169.933 276.754 169.422 277.462 169.046C278.169 168.67 278.945 168.436 279.743 168.357Z" fill="#2F2E41"/>
<path d="M270.299 37.3417C275.867 37.3417 280.38 32.8535 280.38 27.317C280.38 21.7805 275.867 17.2923 270.299 17.2923C264.731 17.2923 260.218 21.7805 260.218 27.317C260.218 32.8535 264.731 37.3417 270.299 37.3417Z" fill="#FFB8B8"/>
<path d="M262.742 166.45C262.309 166.451 261.89 166.3 261.559 166.024C261.227 165.748 261.004 165.365 260.93 164.941C258.325 150.564 249.811 103.553 249.608 102.25C249.603 102.221 249.601 102.19 249.601 102.16V98.6548C249.601 98.5271 249.641 98.4026 249.716 98.2989L250.841 96.7324C250.894 96.6571 250.964 96.5949 251.045 96.5507C251.127 96.5064 251.217 96.4814 251.31 96.4773C257.722 96.1784 278.722 95.3023 279.736 96.5626C280.755 97.8293 280.395 101.667 280.313 102.424L280.317 102.503L289.751 162.499C289.825 162.978 289.706 163.466 289.421 163.858C289.136 164.25 288.706 164.515 288.226 164.595L282.334 165.561C281.895 165.631 281.445 165.542 281.067 165.31C280.688 165.078 280.406 164.719 280.271 164.298C278.448 158.507 272.337 139.026 270.219 131.488C270.206 131.44 270.176 131.399 270.134 131.372C270.092 131.345 270.042 131.333 269.993 131.34C269.944 131.347 269.899 131.372 269.866 131.41C269.834 131.447 269.816 131.495 269.817 131.545C269.923 138.73 270.178 157.064 270.267 163.396L270.276 164.078C270.28 164.539 270.11 164.986 269.799 165.329C269.488 165.671 269.059 165.886 268.596 165.929L262.914 166.443C262.856 166.448 262.799 166.45 262.742 166.45Z" fill="#2F2E41"/>
<path d="M263.901 41.2835C262.142 42.3234 261.089 44.2346 260.485 46.1793C259.366 49.7797 258.693 53.5022 258.48 57.2645L257.842 68.5296L249.938 98.3942C256.788 104.158 260.74 102.848 269.96 98.1335C279.181 93.4192 280.235 99.7053 280.235 99.7053L282.079 74.2944L284.713 46.5267C284.122 45.8186 283.453 45.1787 282.718 44.6189C280.283 42.7361 277.45 41.4273 274.432 40.7913C271.415 40.1554 268.291 40.2087 265.297 40.9475L263.901 41.2835Z" fill="#B3B3B3"/>
<path d="M261.334 76.1588C261.547 76.2383 261.752 76.3344 261.95 76.4461L280.153 67.3863L280.455 62.478L287.964 61.9632L288.366 73.1517L264.04 81.1513C263.842 81.9985 263.388 82.7655 262.741 83.3502C262.093 83.935 261.282 84.3098 260.414 84.4249C259.547 84.5399 258.666 84.3898 257.886 83.9943C257.107 83.5989 256.468 82.977 256.052 82.2112C255.637 81.4455 255.467 80.5723 255.563 79.7076C255.659 78.843 256.018 78.028 256.591 77.371C257.164 76.714 257.925 76.2461 258.772 76.0295C259.62 75.813 260.513 75.8581 261.334 76.1588H261.334Z" fill="#FFB8B8"/>
<path d="M284.582 46.6538C289.06 48.2257 289.849 65.2549 289.849 65.2549C284.58 62.3732 278.257 67.0888 278.257 67.0888C278.257 67.0888 276.94 62.6352 275.359 56.8718C274.882 55.2507 274.825 53.5358 275.194 51.8869C275.562 50.2379 276.344 48.7084 277.467 47.4409C277.467 47.4409 280.103 45.081 284.582 46.6538Z" fill="#B3B3B3"/>
<path d="M279.338 29.9681C278.082 28.9688 276.369 30.7851 276.369 30.7851L275.364 21.7921C275.364 21.7921 269.083 22.5402 265.064 21.5424C261.045 20.5447 260.417 25.1648 260.417 25.1648C260.209 23.2986 260.167 21.4178 260.291 19.5442C260.542 17.2959 263.808 15.0477 269.586 13.5487C275.364 12.0497 278.378 18.5449 278.378 18.5449C282.398 20.5431 280.594 30.9674 279.338 29.9681Z" fill="#2F2E41"/>
<path d="M241.266 96.0166C241.331 94.9361 241.368 93.8481 241.368 92.7513C241.368 78.4625 235.66 64.7588 225.499 54.6551C215.338 44.5513 201.557 38.8751 187.188 38.8751V96.0166H241.266Z" fill="#6C63FF"/>
<path d="M183.083 100.914V43.7729C172.507 43.7725 162.163 46.85 153.324 52.626C144.486 58.4021 137.542 66.624 133.346 76.2779C129.151 85.9318 127.889 96.5956 129.716 106.954C131.542 117.313 136.378 126.914 143.626 134.572C150.874 142.231 160.217 147.613 170.504 150.054C180.792 152.495 191.572 151.889 201.517 148.311C211.462 144.732 220.136 138.337 226.47 129.915C232.804 121.493 236.521 111.412 237.162 100.914H183.083Z" fill="#3F3D56"/>
</svg>
